# xmcd
#
# Track frame offsets: 
#        150
#        69778
#        128836
#        190446
#        214773
#        256543
#
# Disc length: 3864 seconds
#
# Revision: 0
# Processed by: cddbd v1.5.2PL0 Copyright (c) Steve Scherf et al.
# Submitted via: ExactAudioCopy v0.95b4
#
DISCID=4d0f1606
DTITLE=Merl Saunders - Blues From The Rain Forest
DYEAR=1990
DGENRE=Blues
TTITLE0=Blues From The Rain Forest
TTITLE1=Sunrise Over Haleakala
TTITLE2=Blue Hill Ocean Dance
TTITLE3=Afro Pearl Blue
TTITLE4=Dance Of The Fireflies
TTITLE5=Sri Lanka
EXTD=
EXTT0=
EXTT1=
EXTT2=
EXTT3=
EXTT4=
EXTT5=
PLAYORDER=
